<mxfile host="app.diagrams.net" modified="2020-12-13T15:22:03.359Z" agent="5.0 (Windows NT 10.0; Win64; x64) AppleWebKit/537.36 (KHTML, like Gecko) Chrome/87.0.4280.88 Safari/537.36 Edg/87.0.664.60" etag="YTBgPRbUgi2suAs7s_2q" version="14.0.1" type="github">
  <diagram id="oFeBLRhFoD2jbrIdMfkN" name="Page-1">
    <mxGraphModel dx="820" dy="1629" grid="1" gridSize="10" guides="1" tooltips="1" connect="1" arrows="1" fold="1" page="1" pageScale="1" pageWidth="850" pageHeight="1100" math="0" shadow="0">
      <root>
        <mxCell id="0" />
        <mxCell id="1" parent="0" />
        <mxCell id="KZVcwBIvwKNDq4k1mtDS-1" value="&lt;b&gt;Integral forward model&lt;/b&gt;" style="rounded=1;whiteSpace=wrap;html=1;fillColor=#d5e8d4;strokeColor=#82b366;" vertex="1" parent="1">
          <mxGeometry x="170" y="140" width="100" height="40" as="geometry" />
        </mxCell>
        <mxCell id="KZVcwBIvwKNDq4k1mtDS-2" value="" style="shape=flexArrow;endArrow=classic;html=1;fillColor=#d5e8d4;strokeColor=#82b366;endSize=6;width=24;" edge="1" parent="1">
          <mxGeometry width="50" height="50" relative="1" as="geometry">
            <mxPoint x="290" y="159.41" as="sourcePoint" />
            <mxPoint x="420" y="159.41" as="targetPoint" />
            <Array as="points" />
          </mxGeometry>
        </mxCell>
        <mxCell id="KZVcwBIvwKNDq4k1mtDS-3" value="&lt;b&gt;Descending predictions&lt;/b&gt;" style="edgeLabel;html=1;align=center;verticalAlign=middle;resizable=0;points=[];labelBackgroundColor=none;" vertex="1" connectable="0" parent="KZVcwBIvwKNDq4k1mtDS-2">
          <mxGeometry x="-0.3797" y="2" relative="1" as="geometry">
            <mxPoint x="24.520000000000003" y="2.589999999999997" as="offset" />
          </mxGeometry>
        </mxCell>
        <mxCell id="KZVcwBIvwKNDq4k1mtDS-5" value="&lt;b&gt;Motor plant responses&lt;/b&gt;" style="ellipse;whiteSpace=wrap;html=1;aspect=fixed;fillColor=#f5f5f5;strokeColor=#666666;gradientColor=#b3b3b3;" vertex="1" parent="1">
          <mxGeometry x="440" y="120" width="80" height="80" as="geometry" />
        </mxCell>
        <mxCell id="KZVcwBIvwKNDq4k1mtDS-8" value="&lt;b&gt;&lt;font style=&quot;font-size: 33px&quot;&gt;The integral forward model&lt;/font&gt;&lt;/b&gt;" style="text;html=1;align=center;verticalAlign=middle;resizable=0;points=[];autosize=1;" vertex="1" parent="1">
          <mxGeometry x="50" y="-90" width="440" height="30" as="geometry" />
        </mxCell>
        <mxCell id="KZVcwBIvwKNDq4k1mtDS-11" value="" style="html=1;shadow=0;dashed=0;align=center;verticalAlign=middle;shape=mxgraph.arrows2.uTurnArrow;dy=11;arrowHead=51.11;dx2=27.98;rotation=-90;perimeterSpacing=0;flipH=1;fillColor=#f8cecc;strokeColor=#b85450;" vertex="1" parent="1">
          <mxGeometry x="270" y="-105" width="150" height="299" as="geometry" />
        </mxCell>
        <mxCell id="KZVcwBIvwKNDq4k1mtDS-20" value="" style="edgeStyle=orthogonalEdgeStyle;rounded=0;orthogonalLoop=1;jettySize=auto;html=1;endSize=6;" edge="1" parent="1" source="KZVcwBIvwKNDq4k1mtDS-16">
          <mxGeometry relative="1" as="geometry">
            <mxPoint x="170" y="160" as="targetPoint" />
          </mxGeometry>
        </mxCell>
        <mxCell id="KZVcwBIvwKNDq4k1mtDS-16" value="&lt;b&gt;Intended action&lt;/b&gt;" style="rounded=1;whiteSpace=wrap;html=1;fillColor=#d5e8d4;strokeColor=#82b366;" vertex="1" parent="1">
          <mxGeometry x="20" y="140" width="100" height="40" as="geometry" />
        </mxCell>
        <mxCell id="KZVcwBIvwKNDq4k1mtDS-22" value="&lt;b&gt;Exteroceptive sensory predicon error&lt;/b&gt;" style="text;html=1;align=center;verticalAlign=middle;resizable=0;points=[];autosize=1;" vertex="1" parent="1">
          <mxGeometry x="230" y="-50" width="230" height="20" as="geometry" />
        </mxCell>
        <mxCell id="KZVcwBIvwKNDq4k1mtDS-23" value="" style="html=1;shadow=0;dashed=0;align=center;verticalAlign=middle;shape=mxgraph.arrows2.uTurnArrow;dy=11;arrowHead=51.11;dx2=27.98;rotation=-90;perimeterSpacing=0;flipH=0;fillColor=#f8cecc;strokeColor=#b85450;" vertex="1" parent="1">
          <mxGeometry x="270" y="126" width="150" height="299" as="geometry" />
        </mxCell>
        <mxCell id="KZVcwBIvwKNDq4k1mtDS-24" value="&lt;b&gt;Interoceptive sensory prediction error&lt;/b&gt;" style="text;html=1;align=center;verticalAlign=middle;resizable=0;points=[];autosize=1;" vertex="1" parent="1">
          <mxGeometry x="230" y="350" width="230" height="20" as="geometry" />
        </mxCell>
        <mxCell id="KZVcwBIvwKNDq4k1mtDS-26" value="" style="edgeStyle=orthogonalEdgeStyle;rounded=0;orthogonalLoop=1;jettySize=auto;html=1;endSize=6;" edge="1" parent="1" source="KZVcwBIvwKNDq4k1mtDS-25">
          <mxGeometry relative="1" as="geometry">
            <mxPoint x="350" y="147" as="targetPoint" />
          </mxGeometry>
        </mxCell>
        <mxCell id="KZVcwBIvwKNDq4k1mtDS-25" value="&lt;b&gt;Predicted sensory (exteroceptive)&lt;br&gt;consequences = &quot;corollary discharge&quot;&lt;/b&gt;" style="rounded=1;whiteSpace=wrap;html=1;fillColor=#d5e8d4;strokeColor=#82b366;" vertex="1" parent="1">
          <mxGeometry x="275" y="20" width="150" height="70" as="geometry" />
        </mxCell>
        <mxCell id="KZVcwBIvwKNDq4k1mtDS-29" value="" style="edgeStyle=orthogonalEdgeStyle;rounded=0;orthogonalLoop=1;jettySize=auto;html=1;endSize=6;" edge="1" parent="1" source="KZVcwBIvwKNDq4k1mtDS-28">
          <mxGeometry relative="1" as="geometry">
            <mxPoint x="350" y="170" as="targetPoint" />
          </mxGeometry>
        </mxCell>
        <mxCell id="KZVcwBIvwKNDq4k1mtDS-28" value="&lt;b&gt;&lt;span&gt;Predicted sensory (propriocepve)&lt;/span&gt;&lt;br&gt;&lt;span&gt;consequences = ‘motor commands’&lt;/span&gt;&lt;/b&gt;" style="rounded=1;whiteSpace=wrap;html=1;fillColor=#d5e8d4;strokeColor=#82b366;" vertex="1" parent="1">
          <mxGeometry x="275" y="230" width="150" height="70" as="geometry" />
        </mxCell>
      </root>
    </mxGraphModel>
  </diagram>
</mxfile>
